{"title":"Phi-Brain: Puzzle of God","uid":10292665,"size":1658412116,"categoryP":"video","categoryS":"tv_shows","magnet":"?xt=urn:btih:3d19e80d777e50723bfb871d9dfb4a56e6324075&amp;dn=Phi-Brain%3A+Puzzle+of+God&amp;tr=udp%3A%2F%2Ftracker.openbittorrent.com%3A80&amp;tr=udp%3A%2F%2Fopen.demonii.com%3A1337&amp;tr=udp%3A%2F%2Ftracker.coppersurfer.tk%3A6969&amp;tr=udp%3A%2F%2Fexodus.desync.com%3A6969","seeders":1,"leechers":1,"uploader":"p7trick","files":-1,"time":1401880933,"description":"watchcartoononline\n\nPhi-Brain: Puzzle of God ep 1-25 ENGLISH DUBBED\n_________________________________________________________\n\nFormat                                   : MPEG-4\nFormat profile                           : Base Media\nCodec ID                                 : isom\nFile size                                : 65.5 MiB\nDuration                                 : 25mn 32s\nOverall bit rate                         : 359 Kbps\nWriting application                      : Lavf55.0.100\n\nVideo\nID                                       : 1\nFormat                                   : AVC\nFormat/Info                              : Advanced Video Codec\nFormat profile                           : &lt;a class=&quot;__cf_email__&quot; href=&quot;/cdn-cgi/l/email-protection&quot; data-cfemail=&quot;4f0d2e3c2a2326212a0f037c617f&quot;&gt;[email&amp;#160;protected]&lt;/a&gt;&lt;script cf-hash='f9e31' type=&quot;text/javascript&quot;&gt;\n/* &lt;![CDATA[ */!function(){try{var t=&quot;currentScript&quot;in document?document.currentScript:function(){for(var t=document.getElementsByTagName(&quot;script&quot;),e=t.length;e--;)if(t[e].getAttribute(&quot;cf-hash&quot;))return t[e]}();if(t&amp;&amp;t.previousSibling){var e,r,n,i,c=t.previousSibling,a=c.getAttribute(&quot;data-cfemail&quot;);if(a){for(e=&quot;&quot;,r=parseInt(a.substr(0,2),16),n=2;a.length-n;n+=2)i=parseInt(a.substr(n,2),16)^r,e+=String.fromCharCode(i);e=document.createTextNode(e),c.parentNode.replaceChild(e,c)}}}catch(u){}}();/* ]]&gt; */&lt;/script&gt;\nFormat settings, CABAC                   : No\nFormat settings, ReFrames                : 5 frames\nCodec ID                                 : avc1\nCodec ID/Info                            : Advanced Video Coding\nDuration                                 : 25mn 32s\nBit rate                                 : 226 Kbps\nWidth                                    : 640 pixels\nHeight                                   : 356 pixels\nDisplay aspect ratio                     : 16:9\nFrame rate mode                          : Constant\nFrame rate                               : 23.976 fps\nColor space                              : YUV\nChroma subsampling                       : 4:2:0\nBit depth                                : 8 bits\nScan type                                : Progressive\nBits/(Pixel*Frame)                       : 0.041\nStream size                              : 41.3 MiB (63%)\n\nAudio\nID                                       : 2\nFormat                                   : AAC\nFormat/Info                              : Advanced Audio Codec\nFormat profile                           : LC\nCodec ID                                 : 40\nDuration                                 : 25mn 32s\nBit rate mode                            : Constant\nBit rate                                 : 128 Kbps\nChannel(s)                               : 2 channels\nChannel positions                        : Front: L R\nSampling rate                            : 44.1 KHz\nCompression mode                         : Lossy\nStream size                              : 23.4 MiB (36%)\nLanguage                                 : English\n_________________________________________________________\n\nSummary:\nDaimon Kaito would be a completely average high school student except for one thing: he's a demon at solving puzzles. Kaito's so brilliant, in fact, that when he's asked to take some special tests of his unique ability, he immediately suspects that the test itself is a test. Kaito suddenly finds himself caught up in a lethal Philosopher's Puzzle made by the sinister group POG, a murderous maze of trap upon trap, where failing to solve the secret correctly will result in death! Fortunately, Kaito's skills prove up to the first test, both for himself AND his childhood friend Nanoha, who is also caught up in the deadly scheme. But now that he has been designated as a Solver, he is pulled into a new life where he must travel the world with other Solvers, attempting to solve the latest deadly riddles left by POG. There's a new conundrum around every corner and each deception could lead to death, but once a riddle has been posed, you can count on Kaito to unfold, unravel and unlock it in Phi-Brain ~ Kami no Puzzle!\n\nFor updates/requests:\nTwitter - @p7tricktorrent\nFacebook - /p7tricktorrent\nTPB - /user/p7trick/\nKAT - /user/iPirate7\n_________________________________________________________\n\nSEED!\n\nshare ratio:\n&quot;Scumbag = 0.1:1\nLeecher = 0.999:1\nMinimum = 1:1\nGood = 3:1\nGreat = 5:1\nAwesome = 10:1\n1337 = 100:1&quot;\t\t","torrent":{"xt":"urn:btih:3d19e80d777e50723bfb871d9dfb4a56e6324075","amp;dn":"Phi-Brain%3A+Puzzle+of+God","amp;tr":["udp%3A%2F%2Ftracker.openbittorrent.com%3A80","udp%3A%2F%2Fopen.demonii.com%3A1337","udp%3A%2F%2Ftracker.coppersurfer.tk%3A6969","udp%3A%2F%2Fexodus.desync.com%3A6969"],"infoHash":"3d19e80d777e50723bfb871d9dfb4a56e6324075","infoHashBuffer":{"type":"Buffer","data":[61,25,232,13,119,126,80,114,59,251,135,29,157,251,74,86,230,50,64,117]},"announce":[],"urlList":[]}}